<?xml version="1.0" encoding="utf-8"?>
<!-- Generator: Adobe Illustrator 24.2.3, SVG Export Plug-In . SVG Version: 6.00 Build 0)  -->
<svg version="1.1" id="Layer_1" xmlns="http://www.w3.org/2000/svg" xmlns:xlink="http://www.w3.org/1999/xlink" x="0px" y="0px"
	 viewBox="0 0 512 512" style="enable-background:new 0 0 512 512;" xml:space="preserve">
<style type="text/css">
	.st0{fill:#FFFFFF;}
</style>
<path class="st0" d="M228.5,188.9h55c6.1,0,11,4.9,11,11v0.4c0,6.1-4.9,11-11,11h-55c-6.1,0-11-4.9-11-11v-0.4
	C217.5,193.8,222.4,188.9,228.5,188.9z"/>
<path class="st0" d="M256,258.3c-43.4,0-78.6,35.2-78.6,78.6s35.2,78.6,78.6,78.6s78.6-35.2,78.6-78.6v0
	C334.6,293.5,299.4,258.3,256,258.3L256,258.3z M243.2,328.2c-2-1.9-2.1-5.1-0.2-7.1l2.1-2.2h-10.1c-9.8,0-17.8,8-17.8,17.8
	c0,9.8,7.9,17.7,17.7,17.8c0,0,0,0,0,0c2.8,0,5,2.2,5,5s-2.2,5-5,5h0c-15.3,0-27.8-12.4-27.8-27.8c0-15.3,12.4-27.7,27.7-27.8h10.2
	l-2.2-2.3c-1.9-2-1.9-5.1,0.1-7.1c2-1.9,5.1-1.9,7.1,0.1c0,0,0,0,0,0l10.3,10.7c1.9,1.9,1.9,5,0,6.9L250.3,328
	C248.4,330,245.2,330.1,243.2,328.2C243.2,328.2,243.2,328.2,243.2,328.2L243.2,328.2z M276.9,364.8h-10.4l2.4,2.5
	c1.9,2,1.9,5.1-0.1,7.1c-2,1.9-5.1,1.9-7.1-0.1c0,0,0,0,0,0l-10.3-10.7c-1.9-1.9-1.9-5,0-6.9l10.3-10.8c1.9-2,5.1-2.1,7.1-0.2
	s2.1,5.1,0.2,7.1l0,0l-2,2.1h10c9.8,0.1,17.8-7.8,17.9-17.6c0.1-9.8-7.8-17.8-17.6-17.9c-0.1,0-0.2,0-0.3,0h0c-2.8,0-5-2.2-5-5
	s2.2-5,5-5h0c15.3,0.1,27.7,12.6,27.6,27.9C304.4,352.4,292.1,364.7,276.9,364.8L276.9,364.8z"/>
<path class="st0" d="M425.4,62.7c-6-27.4-30.3-46.8-58.3-46.7H144.9c-28-0.1-52.3,19.3-58.3,46.7l-7.5,33.6h353.8L425.4,62.7z"/>
<path class="st0" d="M406.6,462.6l17.6-301.8H87.8l17.6,301.8c1.1,18.7,16.6,33.4,35.4,33.4h230.4C390,496,405.5,481.4,406.6,462.6z
	 M112.4,197.7c-0.1-1.2,0.2-2.4,0.9-3.5c0.9-1.5,2.6-2.5,4.4-2.6c3.1-0.1,5.8,2.4,5.9,5.5c0.1,1.2-0.2,2.4-0.9,3.5
	c-0.9,1.5-2.6,2.5-4.4,2.6c-0.1,0-0.2,0-0.3,0C115,203.1,112.5,200.7,112.4,197.7L112.4,197.7z M125.2,320.1c-0.1,0-0.2,0-0.3,0
	c-2.7,0-4.8-2.1-5-4.7l-5.1-94.7c-0.2-2.8,1.9-5.1,4.7-5.3c2.8-0.2,5.1,1.9,5.3,4.7c0,0,0,0.1,0,0.1l5.1,94.7
	C130.1,317.6,128,319.9,125.2,320.1L125.2,320.1z M207.5,199.9c0-11.6,9.4-21,21-21h55c11.6,0,21,9.4,21,21v0.4c0,11.6-9.4,21-21,21
	h-55c-11.6,0-21-9.4-21-21V199.9z M256,425.5c-48.9,0-88.6-39.7-88.6-88.6c0-48.9,39.7-88.6,88.6-88.6c48.9,0,88.6,39.7,88.6,88.6
	l0,0C344.6,385.8,304.9,425.5,256,425.5L256,425.5z"/>
<path class="st0" d="M439.1,106.3H72.9c-14,0-25.3,11.4-25.3,25.3v19.3h417v-19.3C464.5,117.6,453.1,106.3,439.1,106.3z"/>
</svg>
