<svg id="Layer_1" height="512" viewBox="0 0 512 512" width="512" xmlns="http://www.w3.org/2000/svg" data-name="Layer 1"><path d="m439.14 101.26h-366.28a30.333 30.333 0 0 0 -30.34 30.33v24.27h426.96v-24.27a30.333 30.333 0 0 0 -30.34-30.33z" fill="#4ca987"/><path d="m430.26 61.59 8.88 39.67h-366.28l8.88-39.67a64.754 64.754 0 0 1 63.18-50.59h222.16a64.754 64.754 0 0 1 63.18 50.59z" fill="#5fcda4"/><path d="m429.53 155.86-17.94 307.05a40.44 40.44 0 0 1 -40.37 38.09h-230.44a40.44 40.44 0 0 1 -40.37-38.09l-17.94-307.05z" fill="#f3ce7d"/><circle cx="256" cy="336.89" fill="#5fcda4" r="83.63"/><path d="m299.48 199.87v.36a16 16 0 0 1 -16 16h-54.96a16 16 0 0 1 -16-16v-.36a16.008 16.008 0 0 1 16-16h54.96a16.008 16.008 0 0 1 16 16z" fill="#c6a86d"/><path d="m102.86 101h-30c-16.76 0-29.86 13.84-29.86 30.59v24.41h30v-24.41c0-16.75 13.1-30.59 29.86-30.59z" fill="#3f8266"/><path d="m174.92 11h-30a64.639 64.639 0 0 0 -63.18 50.46l-8.88 39.54h30l8.88-39.54a64.639 64.639 0 0 1 63.18-50.46z" fill="#52a382"/><path d="m130.41 462.98-17.94-306.98h-30l17.94 306.98a40.379 40.379 0 0 0 40.37 38.02h30a40.379 40.379 0 0 1 -40.37-38.02z" fill="#c9aa6d"/><path d="m202.37 336.89a83.633 83.633 0 0 1 68.63-82.262 83.63 83.63 0 1 0 0 164.524 83.641 83.641 0 0 1 -68.63-82.262z" fill="#52a382"/><g fill="#284268"><path d="m250.671 355.888a6 6 0 0 0 .021 8.316l10.324 10.685a6 6 0 0 0 8.63-8.338l-.732-.758h8.021a28.759 28.759 0 0 0 -.021-57.517h-.023a6 6 0 0 0 0 12h.018a16.759 16.759 0 0 1 -.018 33.517h-7.618l.389-.406a6 6 0 1 0 -8.662-8.294z"/><path d="m235.086 365.355h.023a6 6 0 0 0 0-12h-.018a16.758 16.758 0 0 1 .018-33.516h7.758l-.529.553a6 6 0 1 0 8.672 8.294l10.324-10.795a6 6 0 0 0 -.021-8.316l-10.324-10.686a6 6 0 1 0 -8.63 8.338l.591.612h-7.88a28.758 28.758 0 0 0 .021 57.516z"/><path d="m256 426.516a89.627 89.627 0 1 0 -89.627-89.627 89.729 89.729 0 0 0 89.627 89.627zm0-167.254a77.627 77.627 0 1 1 -77.627 77.627 77.715 77.715 0 0 1 77.627-77.627z"/><path d="m228.522 222.229h54.956a22.025 22.025 0 0 0 22-22v-.355a22.025 22.025 0 0 0 -22-22h-54.956a22.025 22.025 0 0 0 -22 22v.355a22.025 22.025 0 0 0 22 22zm-10-22.355a10.011 10.011 0 0 1 10-10h54.956a10.011 10.011 0 0 1 10 10v.355a10.011 10.011 0 0 1 -10 10h-54.956a10.011 10.011 0 0 1 -10-10z"/><path d="m118 204.2c.114 0 .229 0 .344-.009a6.5 6.5 0 0 0 5.175-3.113 6.978 6.978 0 0 0 1.009-4.042 6.7 6.7 0 0 0 -6.916-6.445 6.5 6.5 0 0 0 -5.175 3.113 6.97 6.97 0 0 0 -1.009 4.042 6.713 6.713 0 0 0 6.572 6.454z"/><path d="m119.467 214.446a6 6 0 0 0 -5.665 6.317l5.14 94.659a6 6 0 0 0 5.986 5.675c.11 0 .22 0 .331-.009a6 6 0 0 0 5.666-6.316l-5.141-94.66a5.994 5.994 0 0 0 -6.317-5.666z"/><path d="m444.024 95.6-7.913-35.32a70.747 70.747 0 0 0 -69.036-55.28h-222.15a70.747 70.747 0 0 0 -69.036 55.28l-7.913 35.32a36.333 36.333 0 0 0 -31.453 36v24.267a6 6 0 0 0 6 6h34.29l17.605 301.4a46.489 46.489 0 0 0 46.366 43.733h230.432a46.489 46.489 0 0 0 46.366-43.736l17.605-301.4h34.29a6 6 0 0 0 6-6v-24.264a36.333 36.333 0 0 0 -31.453-36zm-38.424 366.964a34.477 34.477 0 0 1 -34.384 32.436h-230.432a34.477 34.477 0 0 1 -34.384-32.436l-17.565-300.7h334.332zm57.875-312.7h-414.952v-18.264a24.333 24.333 0 0 1 24.333-24.333h48.744a6 6 0 0 0 0-12h-41.251l7.251-32.367a58.414 58.414 0 0 1 57.325-45.9h222.15a58.414 58.414 0 0 1 57.325 45.9l7.25 32.359h-268.05a6 6 0 0 0 0 12h275.544a24.333 24.333 0 0 1 24.333 24.341z"/></g></svg>